Coordinates
version=1
nRows=11
nColumns=36
inDegrees=yes

Units are S.I. units (second, meters, Newtons, ...)
If the header above contains a line with 'inDegrees', this indicates whether rotational values are in degrees (yes) or radians (no).

endheader
time	pelvis_tilt	pelvis_list	pelvis_rotation	pelvis_tx	pelvis_ty	pelvis_tz	hip_flexion_r	hip_adduction_r	hip_rotation_r	knee_angle_r	knee_angle_r_beta	ankle_angle_r	subtalar_angle_r	mtp_angle_r	hip_flexion_l	hip_adduction_l	hip_rotation_l	knee_angle_l	knee_angle_l_beta	ankle_angle_l	subtalar_angle_l	mtp_angle_l	lumbar_extension	lumbar_bending	lumbar_rotation	arm_flex_r	arm_add_r	arm_rot_r	elbow_flex_r	pro_sup_r	arm_flex_l	arm_add_l	arm_rot_l	elbow_flex_l	pro_sup_l
      7.40000000	    -12.42293594	      3.91871167	      2.46352991	      0.56963588	      0.94518419	     -0.08593676	     32.79971411	      5.32961717	      8.08049806	     36.36266607	      0.63464825	     13.77306056	    -14.95788260	     -7.49999987	     59.09010989	      6.90600925	      5.53804141	     29.18114290	      0.50930702	     -2.79231802	    -18.87517341	     -7.49999987	    -22.22016207	     -3.52464887	     -2.28819512	     42.69174568	     10.73080181	     67.41819737	    119.82363804	     98.44270582	     57.60493950	      4.08862209	     74.47188135	    133.50684493	     87.67469512
      7.41666670	    -12.37665994	      3.90733779	      2.58519262	      0.56916594	      0.94594335	     -0.08605157	     31.71478692	      5.21297769	      8.46594820	     34.59209649	      0.60374598	     12.82280790	    -14.50194021	     -7.49999987	     58.43422897	      6.97960122	      6.03978157	     28.69132279	      0.50075805	     -2.81330315	    -19.01203402	     -7.49999987	    -21.11884789	     -3.62925622	     -1.95351990	     42.09334019	     10.32946827	     66.94387729	    120.02036354	     97.41941307	     57.12032712	      4.47355467	     74.26439037	    133.31255041	     86.70782041
      7.43333330	    -12.46109059	      3.84711637	      2.84190572	      0.56831034	      0.95254618	     -0.08556224	     30.68733810	      5.03877250	      8.57825514	     32.56363835	      0.56834271	     11.78357254	    -14.19413998	     -7.49999987	     57.60105810	      7.11217010	      7.00673595	     27.76368091	      0.48456764	     -3.65536672	    -20.15493411	     -7.49999987	    -20.14760574	     -3.70216480	     -1.60359442	     41.38666020	      9.92924787	     66.51208572	    120.48044105	     97.95363518	     56.91789542	      4.90063293	     74.21926474	    132.83811672	     86.90110286
      7.45000000	    -12.21643357	      3.78034608	      3.07545308	      0.57136457	      0.96042926	     -0.08791276	     29.11774167	      4.81364183	      8.67591719	     30.27715067	      0.52843597	     10.69019273	    -14.02678261	     -7.49999987	     55.99562494	      7.20670197	      8.01951447	     26.81324088	      0.46797934	     -4.01792386	    -20.78155786	     -7.49999987	    -19.46458112	     -3.64143616	     -1.64088142	     40.85238174	      9.58861233	     66.54628346	    120.53858674	     98.23355346	     56.50298772	      5.02438844	     74.15789523	    132.08550061	     86.90897461
      7.46666670	    -12.07523076	      3.77281118	      2.98964518	      0.57139828	      0.96272255	     -0.08743738	     28.00762873	      4.64187409	      8.70604603	     28.62800778	      0.49965299	      9.99748141	    -13.56984033	     -7.49999987	     54.74094588	      7.20661038	      9.35230663	     26.53970907	      0.46320531	     -3.57043615	    -20.96280573	     -7.49999987	    -18.96901597	     -3.73217438	     -1.49444050	     40.15461844	      9.25354276	     66.51504323	    120.99357159	     98.47573098	     56.29711904	      5.24423159	     74.05096887	    131.68725240	     86.83772505
      7.48333330	    -11.79718264	      3.84569712	      3.02874345	      0.57894182	      0.96418988	     -0.08699841	     26.70614942	      4.42726808	      8.72142101	     27.20501096	      0.47481701	      9.47872127	    -13.17204547	     -7.49999987	     53.11732050	      7.38376546	     10.64360553	     25.82362812	      0.45070734	     -2.90599524	    -21.39075308	     -7.49999987	    -18.31035729	     -3.92831809	     -1.54161348	     39.54100800	      9.01177376	     66.43756112	    121.08825233	     97.39128519	     55.62546018	      5.35078617	     73.92182502	    131.42862747	     85.27260911
      7.50000000	    -11.76068465	      3.94406724	      2.91875514	      0.58277211	      0.96432532	     -0.08396216	     25.66292734	      4.38767488	      9.02382336	     25.84108775	      0.45101206	      9.56266523	    -12.85610563	     -7.49999987	     51.83919597	      7.53378103	     11.65493216	     25.24255898	      0.44056577	     -1.77907340	    -21.20271918	     -7.49999987	    -17.11543196	     -4.36055614	     -1.49735724	     38.82818811	      9.04185222	     66.55219429	    121.06277526	     97.52488144	     54.96380835	      5.25431598	     73.82585561	    131.17852924	     85.27379736
      7.51666670	    -11.57340482	      4.08901246	      2.85113034	      0.58194017	      0.97054385	     -0.08391205	     24.53512098	      4.27563199	      9.41237344	     24.41473913	      0.42611758	      9.20738887	    -12.62100757	     -7.49999987	     50.43805641	      7.54056933	     12.24054107	     24.54029026	      0.42830886	     -1.28670117	    -21.24342010	     -7.49999987	    -16.25571969	     -4.64463736	     -1.34649015	     38.41282453	      9.09405371	     66.64051929	    120.95596487	     97.62303239	     54.39680898	      5.17481841	     73.76518173	    131.02091424	     85.25328670
      7.53333330	    -11.18458778	      4.20191213	      2.93965152	      0.58547585	      0.97005079	     -0.08596051	     23.32326116	      4.08702342	      9.49190725	     23.32089225	      0.40702635	      8.87853624	    -12.90396425	     -7.49999987	     49.09866954	      7.74844588	     12.72457839	     24.02184131	      0.41926022	     -1.02201466	    -21.40579891	     -7.49999987	    -15.85200291	     -4.86842175	     -1.58057262	     37.95954865	      9.07342574	     66.88005879	    121.23607125	     96.28999173	     53.88837049	      5.21046910	     73.66295365	    130.92792429	     84.03553705
      7.55000000	    -10.98368262	      4.33693554	      2.79642841	      0.58894862	      0.97107575	     -0.08821211	     22.43471830	      3.84164324	      9.52652304	     22.49095504	      0.39254122	      9.02475439	    -12.46861393	     -7.49999987	     47.99784243	      7.86946883	     13.08615277	     23.57720436	      0.41149984	     -0.89097982	    -21.72160843	     -7.49999987	    -15.13538920	     -4.92139725	     -1.60801241	     37.42331357	      8.94721945	     66.77326787	    121.48197034	     98.52977339	     53.00753663	      5.22940726	     73.27417255	    130.83623077	     84.75400876
      7.56666670	    -10.87573812	      4.35688251	      2.70106368	      0.58774701	      0.97454009	     -0.08777166	     21.80242234	      3.74631691	      9.61623537	     21.77267792	      0.38000492	      9.02543036	    -12.36854745	     -7.49999987	     47.03848331	      7.74060719	     13.20854963	     22.93143999	      0.40022913	     -0.66383355	    -21.68002094	     -7.49999987	    -14.45074780	     -4.87044022	     -1.51229509	     37.26485130	      8.74689287	     66.66906278	    121.51756587	     98.52090808	     52.36065215	      5.23978179	     73.18433033	    130.79579967	     84.75068055
